<?xml version="1.0" encoding="utf-8"?>
<svg width="1087px" height="1087px" viewBox="0 0 1087 1087" version="1.1" xmlns:xlink="http://www.w3.org/1999/xlink" xmlns="http://www.w3.org/2000/svg">
  <path d="M0 0L1087 0L1087 1087L0 1087L0 0Z" id="Rectangle" fill="#D3D3D3" fill-opacity="0" fill-rule="evenodd" stroke="none" />
  <path d="M136.203 567.27C136.203 558.345 136.154 545.54 136.874 538.747C138.565 522.804 144.419 505.511 148.827 490.649C152.681 477.656 156.251 464.662 160.874 452.105C164.181 443.119 168.124 434.644 171.518 425.754C176.807 411.905 181.583 396.401 190.934 386.109C193.871 382.876 197.839 380.682 201.088 377.825C214.742 365.819 226.864 350.207 241.589 340.398C253.531 332.442 267.423 325.108 280.852 323.631C288.166 322.826 295.55 322.958 302.941 322.958C305.931 322.958 319.589 322.958 322.579 322.958C324.874 322.958 327.461 322.704 329.691 323.73C338.071 327.588 345.796 333.851 353.34 339.816C356.141 342.031 359.271 343.563 362.052 345.828C379.868 360.346 395.693 379.491 411.673 397.162C416.424 402.415 421.855 406.584 426.873 411.335C441.362 425.056 455.769 437.716 471.969 447.753C478.137 451.575 484.536 458.288 491.092 460.879C500.366 464.544 509.536 464.313 519.103 464.313C531.058 464.313 542.244 463.535 553.916 459.693C563.114 456.666 572.021 451.652 581.104 448.212C590.777 444.548 601.754 441.682 610.644 435.185C623.824 425.554 636.934 415.246 649.422 404.122C664.463 390.725 675.241 371.43 689.263 356.767C702.612 342.807 718.517 332.757 734.4 325.084C750.457 317.327 765.533 308.921 782.802 308.921C784.16 308.921 785.519 308.921 786.877 308.921C788.234 308.921 789.615 308.589 790.947 308.921C792.4 309.284 793.714 310.29 795.099 310.971C796.457 311.639 797.79 312.403 799.175 312.968C803.864 314.882 808.815 315.517 813.557 317.121C822.72 320.223 831.378 325.137 840.166 329.322C846.676 332.422 853.383 333.98 858.886 339.877C864.349 345.73 868.541 356.003 872.871 363.1C877.307 370.371 885.523 382.12 886.366 392.06C887.006 399.613 886.366 407.887 886.366 415.504C886.366 419.661 887.023 425.277 886.366 429.38C885.502 434.772 882.962 439.598 881.414 444.647C876.914 459.329 872.017 473.993 864.153 486.213C859.24 493.848 853.497 497.993 847.623 504.05C834.914 517.155 822.98 532.093 809.44 543.742C803.837 548.562 797.723 552.905 791.905 557.365C786.784 561.29 781.115 563.864 775.8 567.11C770.625 570.271 765.665 574.076 760.309 576.832C753.354 580.41 744.834 583.559 739.124 590.256C730.664 600.18 724.586 614.583 717.87 626.413C699.253 659.202 684.683 694.882 667.717 729.034C660.763 743.032 654.446 758.136 646.526 771.249C638.557 784.445 629.024 795.63 618.568 805.319C601.123 821.484 583.984 839.7 565.099 852.827C554.604 860.121 541.026 858.97 529.526 858.97C519.56 858.97 509.178 859.938 499.232 858.97C479.677 857.065 461.556 845.683 446.148 830.538C444.825 829.237 443.513 827.897 442.335 826.377C441.678 825.529 441.38 824.258 440.677 823.478C433.968 816.03 425.378 808.488 421.857 797.142C418.713 787.009 418.33 770.08 411.224 762.69C402.476 753.594 389.872 750.268 379.347 746.734C354.022 738.23 327.86 741.203 302.468 733.769C288.165 729.581 274.217 723.308 261.448 713.828C250.406 705.629 239.519 697.56 228.614 689.044C219.557 681.971 211.593 674.604 203.29 666.166C195.755 658.51 188.731 650.292 180.931 643.043C174.136 636.727 167.011 631.634 161.644 623.185C156.174 614.574 155.751 603.631 152.319 594.639C151.423 592.292 151.592 588.707 150.392 587.135C148.996 585.306 147.022 580.877 146.013 578.232C145.218 576.149 141.398 575.33 140.214 573.68C138.378 571.121 136.822 564.647 136.822 560.111" id="Vector" fill="#933030" fill-rule="evenodd" stroke="#FF0000" stroke-width="1" />
  <path d="M196.545 539.897C196.545 530.971 196.496 518.167 197.217 511.373C198.907 495.43 204.761 478.137 209.169 463.275C213.023 450.283 216.594 437.288 221.216 424.732C224.523 415.746 228.466 407.27 231.861 398.38C237.149 384.531 241.925 369.027 251.276 358.735C254.213 355.502 258.181 353.308 261.43 350.451C275.084 338.445 287.206 322.833 301.931 313.024C313.873 305.069 327.765 297.734 341.194 296.257C348.508 295.453 355.892 295.584 363.284 295.584C366.273 295.584 379.931 295.584 382.921 295.584C385.216 295.584 387.804 295.33 390.033 296.356C398.413 300.215 406.138 306.478 413.682 312.442C416.483 314.657 419.614 316.189 422.394 318.455C440.21 332.972 456.035 352.117 472.016 369.788C476.767 375.042 482.197 379.21 487.215 383.962C501.705 397.682 516.111 410.342 532.311 420.379C538.48 424.201 544.879 430.914 551.435 433.505C560.709 437.17 569.878 436.939 579.445 436.939C591.4 436.939 602.586 436.161 614.259 432.319C623.457 429.292 632.363 424.278 641.446 420.838C651.119 417.174 662.096 414.308 670.987 407.812C684.166 398.181 697.277 387.873 709.765 376.749C724.805 363.351 735.584 344.056 749.606 329.393C762.954 315.433 778.86 305.383 794.743 297.71C810.799 289.954 825.875 281.548 843.144 281.548C844.502 281.548 845.861 281.548 847.22 281.548C848.576 281.548 849.957 281.215 851.289 281.548C852.742 281.91 854.057 282.917 855.441 283.598C856.799 284.265 858.132 285.029 859.517 285.594C864.206 287.508 869.157 288.143 873.899 289.748C883.062 292.849 891.72 297.763 900.508 301.948C907.018 305.048 913.725 306.606 919.229 312.504C924.691 318.357 928.884 328.629 933.214 335.726C937.65 342.997 945.865 354.746 946.708 364.686C947.349 372.239 946.708 380.513 946.708 388.13C946.708 392.288 947.365 397.903 946.708 402.006C945.844 407.398 943.304 412.224 941.756 417.274C937.256 431.955 932.359 446.62 924.496 458.839C919.583 466.474 913.839 470.62 907.965 476.677C895.256 489.781 883.322 504.719 869.782 516.368C864.179 521.188 858.065 525.531 852.247 529.991C847.126 533.917 841.457 536.49 836.143 539.736C830.967 542.897 826.007 546.703 820.651 549.458C813.696 553.036 805.176 556.185 799.467 562.882C791.006 572.806 784.929 587.21 778.212 599.04C759.595 631.829 745.025 667.508 728.059 701.66C721.105 715.659 714.788 730.762 706.868 743.876C698.899 757.071 689.366 768.256 678.91 777.945C661.465 794.111 644.326 812.327 625.441 825.453C614.947 832.748 601.368 831.596 589.868 831.596C579.902 831.596 569.52 832.564 559.574 831.596C540.019 829.691 521.898 818.31 506.49 803.164C505.167 801.863 503.856 800.524 502.677 799.003C502.021 798.155 501.722 796.885 501.019 796.104C494.31 788.656 485.72 781.114 482.199 769.768C479.055 759.635 478.672 742.706 471.566 735.316C462.818 726.22 450.214 722.894 439.69 719.36C414.365 710.856 388.203 713.83 362.811 706.395C348.508 702.207 334.56 695.935 321.79 686.454C310.749 678.256 299.861 670.187 288.956 661.671C279.899 654.597 271.935 647.23 263.632 638.792C256.097 631.136 249.073 622.918 241.273 615.669C234.479 609.354 227.353 604.26 221.987 595.812C216.516 587.2 216.094 576.258 212.661 567.265C211.766 564.918 211.935 561.334 210.734 559.761C209.338 557.932 207.365 553.503 206.355 550.858C205.56 548.775 201.741 547.956 200.557 546.307C198.72 543.748 197.164 537.273 197.164 532.737" id="Vector-2" fill="#FF0000" fill-rule="evenodd" stroke="#FF0000" stroke-width="1" />
  <g id="SLYCED" fill="#0088FF" transform="translate(120 531)">
    <path d="M13.252 157.892L13.252 206.856L18.8672 206.856Q20.6641 197.311 24.3701 192.032Q41.1035 211.236 66.1475 211.236Q87.9346 211.236 100.962 198.995Q113.989 186.754 113.989 167.213Q113.989 154.859 108.599 145.426Q103.208 135.992 94.2798 130.658Q85.3516 125.323 65.6982 116.563Q45.1465 107.354 37.2852 99.9424Q29.3115 92.6426 29.3115 82.0859Q29.3115 73.3262 35.6567 65.9702Q42.002 58.6143 55.5908 58.6143Q69.8535 58.6143 80.6909 68.6094Q91.5283 78.6045 95.7959 96.0117L100.737 96.0117L100.737 56.1436L95.7959 56.1436Q95.1221 63.3311 89.9561 69.5078Q80.9717 59.625 72.4365 56.4805Q63.9014 53.3359 54.2432 53.3359Q36.9482 53.3359 25.6616 64.1733Q14.375 75.0107 14.375 91.2949Q14.375 101.964 19.5972 111.397Q24.8193 120.831 34.1406 126.727Q43.4619 132.623 61.7676 140.484Q82.3193 149.244 90.0684 156.881Q97.8174 164.63 97.8174 176.085Q97.8174 187.428 89.0015 196.581Q80.1855 205.733 64.126 205.733Q28.4131 205.733 18.8672 157.892L13.252 157.892ZM569.385 151.266L564.556 151.266Q563.208 164.518 555.74 178.724Q548.271 192.931 535.469 198.883Q522.666 204.835 510.425 204.835Q487.515 204.835 472.129 186.585Q456.743 168.336 456.743 134.083Q456.743 97.9209 470.837 78.4922Q484.932 59.0635 508.853 59.0635Q528.394 59.0635 543.948 71.0801Q559.502 83.0967 564.556 113.868L569.385 113.868L568.037 56.1436L563.096 56.1436Q562.085 66.3633 557.256 75.9092Q550.405 67.374 536.536 60.355Q522.666 53.3359 505.596 53.3359Q484.932 53.3359 467.637 62.9941Q450.342 72.6523 440.684 92.5864Q431.025 112.521 431.025 135.094Q431.025 169.459 451.97 190.348Q472.915 211.236 505.933 211.236Q537.153 211.236 557.256 188.551Q562.534 195.514 564.556 204.61L569.385 204.61L569.385 151.266ZM758.73 56.1436L733.687 57.3789L733.687 62.5449L738.179 62.5449Q749.746 62.5449 753.171 64.5103Q756.597 66.4756 757.664 71.8101Q758.73 77.1445 758.73 95.3379L758.73 168.785Q758.73 187.877 757.664 193.099Q756.597 198.321 752.834 200.792Q749.072 203.263 739.302 203.263L733.013 203.263L733.013 208.429L800.508 208.429Q819.487 208.429 829.932 207.25Q840.376 206.07 852 201.297Q863.623 196.524 872.439 187.372Q881.255 178.219 886.309 164.349Q891.362 150.479 891.362 133.746Q891.362 110.611 882.097 92.9233Q872.832 75.2354 853.853 64.9033Q834.873 54.5713 800.957 54.5713Q790.063 54.5713 758.73 56.1436ZM260.435 208.429L261.558 163.619L256.279 163.619Q251.226 181.7 245.105 190.011Q238.984 198.321 232.19 200.792Q225.396 203.263 211.357 203.263L199.79 203.263Q186.65 203.263 182.664 200.96Q178.677 198.658 177.778 194.503Q176.88 190.348 176.88 173.839L176.88 94.1025Q176.88 75.123 178.059 70.0693Q179.238 65.0156 182.72 63.1626Q186.201 61.3096 197.432 61.3096L204.17 61.3096L204.17 56.1436L131.06 56.1436L131.06 61.3096L134.429 61.3096Q145.996 61.3096 149.421 63.3311Q152.847 65.3525 153.914 70.6309Q154.98 75.9092 154.98 94.1025L154.98 168.785Q154.98 187.877 153.914 193.099Q152.847 198.321 149.084 200.792Q145.322 203.263 135.552 203.263L131.06 203.263L131.06 208.429L260.435 208.429ZM350.054 141.832L380.039 91.4072Q387.451 79.0537 387.451 73.8877Q387.451 69.1709 383.521 65.2402Q379.59 61.3096 369.482 61.3096L369.482 56.1436L419.233 56.1436L419.233 61.3096Q408.901 62.7695 402.556 69.0024Q396.211 75.2354 386.328 91.6318L352.188 148.57L352.188 168.785Q352.188 188.214 353.367 193.548Q354.546 198.883 358.42 201.073Q362.295 203.263 373.638 203.263L373.638 208.429L308.726 208.429L308.726 203.263L311.196 203.263Q320.967 203.263 324.729 200.792Q328.491 198.321 329.502 193.099Q330.513 187.877 330.513 168.785L330.513 150.03L292.554 87.7012Q280.986 68.834 277.168 65.1841Q273.35 61.5342 263.467 61.3096L263.467 56.1436L325.234 56.1436L325.234 61.3096Q307.939 61.3096 307.939 69.1709Q307.939 72.3154 313.667 81.749L350.054 141.832ZM715.83 161.036L721.221 161.036L717.964 208.429L591.846 208.429L591.846 203.263L594.99 203.263Q606.333 203.263 609.646 200.23Q612.959 197.198 613.857 192.538Q614.756 187.877 614.756 168.785L614.756 94.1025Q614.756 76.6953 613.801 71.1924Q612.847 65.6895 609.421 63.4995Q605.996 61.3096 594.99 61.3096L594.99 56.1436L703.813 56.1436L707.407 94.1025L702.129 94.1025Q698.535 78.1553 693.313 71.4731Q688.091 64.791 680.903 63.0503Q673.716 61.3096 657.769 61.3096L636.655 61.3096L636.655 125.211L652.827 125.211Q663.945 125.211 668.381 123.302Q672.817 121.393 674.221 117.518Q675.625 113.644 675.625 102.413L680.903 102.413L680.903 154.522L675.625 154.522Q675.625 141.832 673.491 137.508Q671.357 133.185 667.258 131.893Q663.159 130.602 653.389 130.602L636.655 130.602L636.655 166.651Q636.655 193.717 640.137 198.49Q643.618 203.263 658.892 203.263L670.234 203.263Q682.251 203.263 690 200.174Q697.749 197.086 704.768 187.484Q711.787 177.882 715.83 161.036ZM781.472 191.358Q780.63 184.845 780.63 162.271L780.63 60.5234Q789.39 59.9619 797.925 59.9619Q815.669 59.9619 827.012 63.3872Q838.354 66.8125 847.676 76.3022Q856.997 85.792 861.995 100.953Q866.992 116.114 866.992 135.431Q866.992 160.25 858.401 176.253Q849.81 192.257 837.007 197.704Q824.204 203.15 804.326 203.15Q790.737 203.15 786.526 200.511Q782.314 197.872 781.472 191.358Z" />
  </g>
  <g id="SLYCED" fill="#00E1FF" transform="translate(136.20001 518.4)">
    <path d="M13.252 157.892L13.252 206.856L18.8672 206.856Q20.6641 197.311 24.3701 192.032Q41.1035 211.236 66.1475 211.236Q87.9346 211.236 100.962 198.995Q113.989 186.754 113.989 167.213Q113.989 154.859 108.599 145.426Q103.208 135.992 94.2798 130.658Q85.3516 125.323 65.6982 116.563Q45.1465 107.354 37.2852 99.9424Q29.3115 92.6426 29.3115 82.0859Q29.3115 73.3262 35.6567 65.9702Q42.002 58.6143 55.5908 58.6143Q69.8535 58.6143 80.6909 68.6094Q91.5283 78.6045 95.7959 96.0117L100.737 96.0117L100.737 56.1436L95.7959 56.1436Q95.1221 63.3311 89.9561 69.5078Q80.9717 59.625 72.4365 56.4805Q63.9014 53.3359 54.2432 53.3359Q36.9482 53.3359 25.6616 64.1733Q14.375 75.0107 14.375 91.2949Q14.375 101.964 19.5972 111.397Q24.8193 120.831 34.1406 126.727Q43.4619 132.623 61.7676 140.484Q82.3193 149.244 90.0684 156.881Q97.8174 164.63 97.8174 176.085Q97.8174 187.428 89.0015 196.581Q80.1855 205.733 64.126 205.733Q28.4131 205.733 18.8672 157.892L13.252 157.892ZM569.385 151.266L564.556 151.266Q563.208 164.518 555.74 178.724Q548.271 192.931 535.469 198.883Q522.666 204.835 510.425 204.835Q487.515 204.835 472.129 186.585Q456.743 168.336 456.743 134.083Q456.743 97.9209 470.837 78.4922Q484.932 59.0635 508.853 59.0635Q528.394 59.0635 543.948 71.0801Q559.502 83.0967 564.556 113.868L569.385 113.868L568.037 56.1436L563.096 56.1436Q562.085 66.3633 557.256 75.9092Q550.405 67.374 536.536 60.355Q522.666 53.3359 505.596 53.3359Q484.932 53.3359 467.637 62.9941Q450.342 72.6523 440.684 92.5864Q431.025 112.521 431.025 135.094Q431.025 169.459 451.97 190.348Q472.915 211.236 505.933 211.236Q537.153 211.236 557.256 188.551Q562.534 195.514 564.556 204.61L569.385 204.61L569.385 151.266ZM758.73 56.1436L733.687 57.3789L733.687 62.5449L738.179 62.5449Q749.746 62.5449 753.171 64.5103Q756.597 66.4756 757.664 71.8101Q758.73 77.1445 758.73 95.3379L758.73 168.785Q758.73 187.877 757.664 193.099Q756.597 198.321 752.834 200.792Q749.072 203.263 739.302 203.263L733.013 203.263L733.013 208.429L800.508 208.429Q819.487 208.429 829.932 207.25Q840.376 206.07 852 201.297Q863.623 196.524 872.439 187.372Q881.255 178.219 886.309 164.349Q891.362 150.479 891.362 133.746Q891.362 110.611 882.097 92.9233Q872.832 75.2354 853.853 64.9033Q834.873 54.5713 800.957 54.5713Q790.063 54.5713 758.73 56.1436ZM260.435 208.429L261.558 163.619L256.279 163.619Q251.226 181.7 245.105 190.011Q238.984 198.321 232.19 200.792Q225.396 203.263 211.357 203.263L199.79 203.263Q186.65 203.263 182.664 200.96Q178.677 198.658 177.778 194.503Q176.88 190.348 176.88 173.839L176.88 94.1025Q176.88 75.123 178.059 70.0693Q179.238 65.0156 182.72 63.1626Q186.201 61.3096 197.432 61.3096L204.17 61.3096L204.17 56.1436L131.06 56.1436L131.06 61.3096L134.429 61.3096Q145.996 61.3096 149.421 63.3311Q152.847 65.3525 153.914 70.6309Q154.98 75.9092 154.98 94.1025L154.98 168.785Q154.98 187.877 153.914 193.099Q152.847 198.321 149.084 200.792Q145.322 203.263 135.552 203.263L131.06 203.263L131.06 208.429L260.435 208.429ZM350.054 141.832L380.039 91.4072Q387.451 79.0537 387.451 73.8877Q387.451 69.1709 383.521 65.2402Q379.59 61.3096 369.482 61.3096L369.482 56.1436L419.233 56.1436L419.233 61.3096Q408.901 62.7695 402.556 69.0024Q396.211 75.2354 386.328 91.6318L352.188 148.57L352.188 168.785Q352.188 188.214 353.367 193.548Q354.546 198.883 358.42 201.073Q362.295 203.263 373.638 203.263L373.638 208.429L308.726 208.429L308.726 203.263L311.196 203.263Q320.967 203.263 324.729 200.792Q328.491 198.321 329.502 193.099Q330.513 187.877 330.513 168.785L330.513 150.03L292.554 87.7012Q280.986 68.834 277.168 65.1841Q273.35 61.5342 263.467 61.3096L263.467 56.1436L325.234 56.1436L325.234 61.3096Q307.939 61.3096 307.939 69.1709Q307.939 72.3154 313.667 81.749L350.054 141.832ZM715.83 161.036L721.221 161.036L717.964 208.429L591.846 208.429L591.846 203.263L594.99 203.263Q606.333 203.263 609.646 200.23Q612.959 197.198 613.857 192.538Q614.756 187.877 614.756 168.785L614.756 94.1025Q614.756 76.6953 613.801 71.1924Q612.847 65.6895 609.421 63.4995Q605.996 61.3096 594.99 61.3096L594.99 56.1436L703.813 56.1436L707.407 94.1025L702.129 94.1025Q698.535 78.1553 693.313 71.4731Q688.091 64.791 680.903 63.0503Q673.716 61.3096 657.769 61.3096L636.655 61.3096L636.655 125.211L652.827 125.211Q663.945 125.211 668.381 123.302Q672.817 121.393 674.221 117.518Q675.625 113.644 675.625 102.413L680.903 102.413L680.903 154.522L675.625 154.522Q675.625 141.832 673.491 137.508Q671.357 133.185 667.258 131.893Q663.159 130.602 653.389 130.602L636.655 130.602L636.655 166.651Q636.655 193.717 640.137 198.49Q643.618 203.263 658.892 203.263L670.234 203.263Q682.251 203.263 690 200.174Q697.749 197.086 704.768 187.484Q711.787 177.882 715.83 161.036ZM781.472 191.358Q780.63 184.845 780.63 162.271L780.63 60.5234Q789.39 59.9619 797.925 59.9619Q815.669 59.9619 827.012 63.3872Q838.354 66.8125 847.676 76.3022Q856.997 85.792 861.995 100.953Q866.992 116.114 866.992 135.431Q866.992 160.25 858.401 176.253Q849.81 192.257 837.007 197.704Q824.204 203.15 804.326 203.15Q790.737 203.15 786.526 200.511Q782.314 197.872 781.472 191.358Z" />
  </g>
  <g id="SLCYED" fill="#0088FF" transform="translate(77 281.4)">
    <path d="M13.252 157.892L13.252 206.856L18.8672 206.856Q20.6641 197.311 24.3701 192.032Q41.1035 211.236 66.1475 211.236Q87.9346 211.236 100.962 198.995Q113.989 186.754 113.989 167.213Q113.989 154.859 108.599 145.426Q103.208 135.992 94.2798 130.658Q85.3516 125.323 65.6982 116.563Q45.1465 107.354 37.2852 99.9424Q29.3115 92.6426 29.3115 82.0859Q29.3115 73.3262 35.6567 65.9702Q42.002 58.6143 55.5908 58.6143Q69.8535 58.6143 80.6909 68.6094Q91.5283 78.6045 95.7959 96.0117L100.737 96.0117L100.737 56.1436L95.7959 56.1436Q95.1221 63.3311 89.9561 69.5078Q80.9717 59.625 72.4365 56.4805Q63.9014 53.3359 54.2432 53.3359Q36.9482 53.3359 25.6616 64.1733Q14.375 75.0107 14.375 91.2949Q14.375 101.964 19.5972 111.397Q24.8193 120.831 34.1406 126.727Q43.4619 132.623 61.7676 140.484Q82.3193 149.244 90.0684 156.881Q97.8174 164.63 97.8174 176.085Q97.8174 187.428 89.0015 196.581Q80.1855 205.733 64.126 205.733Q28.4131 205.733 18.8672 157.892L13.252 157.892ZM408.789 151.266L413.618 151.266L413.618 204.61L408.789 204.61Q406.768 195.514 401.489 188.551Q381.387 211.236 350.166 211.236Q317.148 211.236 296.204 190.348Q275.259 169.459 275.259 135.094Q275.259 112.521 284.917 92.5864Q294.575 72.6523 311.87 62.9941Q329.165 53.3359 349.829 53.3359Q366.899 53.3359 380.769 60.355Q394.639 67.374 401.489 75.9092Q406.318 66.3633 407.329 56.1436L412.271 56.1436L413.618 113.868L408.789 113.868Q403.735 83.0967 388.181 71.0801Q372.627 59.0635 353.086 59.0635Q329.165 59.0635 315.071 78.4922Q300.977 97.9209 300.977 134.083Q300.977 168.336 316.362 186.585Q331.748 204.835 354.658 204.835Q366.899 204.835 379.702 198.883Q392.505 192.931 399.973 178.724Q407.441 164.518 408.789 151.266ZM758.73 56.1436L733.687 57.3789L733.687 62.5449L738.179 62.5449Q749.746 62.5449 753.171 64.5103Q756.597 66.4756 757.664 71.8101Q758.73 77.1445 758.73 95.3379L758.73 168.785Q758.73 187.877 757.664 193.099Q756.597 198.321 752.834 200.792Q749.072 203.263 739.302 203.263L733.013 203.263L733.013 208.429L800.508 208.429Q819.487 208.429 829.932 207.25Q840.376 206.07 852 201.297Q863.623 196.524 872.439 187.372Q881.255 178.219 886.309 164.349Q891.362 150.479 891.362 133.746Q891.362 110.611 882.097 92.9233Q872.832 75.2354 853.853 64.9033Q834.873 54.5713 800.957 54.5713Q790.063 54.5713 758.73 56.1436ZM260.435 208.429L261.558 163.619L256.279 163.619Q251.226 181.7 245.105 190.011Q238.984 198.321 232.19 200.792Q225.396 203.263 211.357 203.263L199.79 203.263Q186.65 203.263 182.664 200.96Q178.677 198.658 177.778 194.503Q176.88 190.348 176.88 173.839L176.88 94.1025Q176.88 75.123 178.059 70.0693Q179.238 65.0156 182.72 63.1626Q186.201 61.3096 197.432 61.3096L204.17 61.3096L204.17 56.1436L131.06 56.1436L131.06 61.3096L134.429 61.3096Q145.996 61.3096 149.421 63.3311Q152.847 65.3525 153.914 70.6309Q154.98 75.9092 154.98 94.1025L154.98 168.785Q154.98 187.877 153.914 193.099Q152.847 198.321 149.084 200.792Q145.322 203.263 135.552 203.263L131.06 203.263L131.06 208.429L260.435 208.429ZM545.352 91.4072L515.366 141.832L478.979 81.749Q473.252 72.3154 473.252 69.1709Q473.252 61.3096 490.547 61.3096L490.547 56.1436L428.779 56.1436L428.779 61.3096Q438.662 61.5342 442.48 65.1841Q446.299 68.834 457.866 87.7012L495.825 150.03L495.825 168.785Q495.825 187.877 494.814 193.099Q493.804 198.321 490.042 200.792Q486.279 203.263 476.509 203.263L474.038 203.263L474.038 208.429L538.95 208.429L538.95 203.263Q527.607 203.263 523.733 201.073Q519.858 198.883 518.679 193.548Q517.5 188.214 517.5 168.785L517.5 148.57L551.641 91.6318Q561.523 75.2354 567.869 69.0024Q574.214 62.7695 584.546 61.3096L584.546 56.1436L534.795 56.1436L534.795 61.3096Q544.902 61.3096 548.833 65.2402Q552.764 69.1709 552.764 73.8877Q552.764 79.0537 545.352 91.4072ZM715.83 161.036L721.221 161.036L717.964 208.429L591.846 208.429L591.846 203.263L594.99 203.263Q606.333 203.263 609.646 200.23Q612.959 197.198 613.857 192.538Q614.756 187.877 614.756 168.785L614.756 94.1025Q614.756 76.6953 613.801 71.1924Q612.847 65.6895 609.421 63.4995Q605.996 61.3096 594.99 61.3096L594.99 56.1436L703.813 56.1436L707.407 94.1025L702.129 94.1025Q698.535 78.1553 693.313 71.4731Q688.091 64.791 680.903 63.0503Q673.716 61.3096 657.769 61.3096L636.655 61.3096L636.655 125.211L652.827 125.211Q663.945 125.211 668.381 123.302Q672.817 121.393 674.221 117.518Q675.625 113.644 675.625 102.413L680.903 102.413L680.903 154.522L675.625 154.522Q675.625 141.832 673.491 137.508Q671.357 133.185 667.258 131.893Q663.159 130.602 653.389 130.602L636.655 130.602L636.655 166.651Q636.655 193.717 640.137 198.49Q643.618 203.263 658.892 203.263L670.234 203.263Q682.251 203.263 690 200.174Q697.749 197.086 704.768 187.484Q711.787 177.882 715.83 161.036ZM781.472 191.358Q780.63 184.845 780.63 162.271L780.63 60.5234Q789.39 59.9619 797.925 59.9619Q815.669 59.9619 827.012 63.3872Q838.354 66.8125 847.676 76.3022Q856.997 85.792 861.995 100.953Q866.992 116.114 866.992 135.431Q866.992 160.25 858.401 176.253Q849.81 192.257 837.007 197.704Q824.204 203.15 804.326 203.15Q790.737 203.15 786.526 200.511Q782.314 197.872 781.472 191.358Z" />
  </g>
  <g id="SLCYED" fill="#00E1FF" transform="translate(105 267.4)">
    <path d="M13.252 157.892L13.252 206.856L18.8672 206.856Q20.6641 197.311 24.3701 192.032Q41.1035 211.236 66.1475 211.236Q87.9346 211.236 100.962 198.995Q113.989 186.754 113.989 167.213Q113.989 154.859 108.599 145.426Q103.208 135.992 94.2798 130.658Q85.3516 125.323 65.6982 116.563Q45.1465 107.354 37.2852 99.9424Q29.3115 92.6426 29.3115 82.0859Q29.3115 73.3262 35.6567 65.9702Q42.002 58.6143 55.5908 58.6143Q69.8535 58.6143 80.6909 68.6094Q91.5283 78.6045 95.7959 96.0117L100.737 96.0117L100.737 56.1436L95.7959 56.1436Q95.1221 63.3311 89.9561 69.5078Q80.9717 59.625 72.4365 56.4805Q63.9014 53.3359 54.2432 53.3359Q36.9482 53.3359 25.6616 64.1733Q14.375 75.0107 14.375 91.2949Q14.375 101.964 19.5972 111.397Q24.8193 120.831 34.1406 126.727Q43.4619 132.623 61.7676 140.484Q82.3193 149.244 90.0684 156.881Q97.8174 164.63 97.8174 176.085Q97.8174 187.428 89.0015 196.581Q80.1855 205.733 64.126 205.733Q28.4131 205.733 18.8672 157.892L13.252 157.892ZM408.789 151.266L413.618 151.266L413.618 204.61L408.789 204.61Q406.768 195.514 401.489 188.551Q381.387 211.236 350.166 211.236Q317.148 211.236 296.204 190.348Q275.259 169.459 275.259 135.094Q275.259 112.521 284.917 92.5864Q294.575 72.6523 311.87 62.9941Q329.165 53.3359 349.829 53.3359Q366.899 53.3359 380.769 60.355Q394.639 67.374 401.489 75.9092Q406.318 66.3633 407.329 56.1436L412.271 56.1436L413.618 113.868L408.789 113.868Q403.735 83.0967 388.181 71.0801Q372.627 59.0635 353.086 59.0635Q329.165 59.0635 315.071 78.4922Q300.977 97.9209 300.977 134.083Q300.977 168.336 316.362 186.585Q331.748 204.835 354.658 204.835Q366.899 204.835 379.702 198.883Q392.505 192.931 399.973 178.724Q407.441 164.518 408.789 151.266ZM758.73 56.1436L733.687 57.3789L733.687 62.5449L738.179 62.5449Q749.746 62.5449 753.171 64.5103Q756.597 66.4756 757.664 71.8101Q758.73 77.1445 758.73 95.3379L758.73 168.785Q758.73 187.877 757.664 193.099Q756.597 198.321 752.834 200.792Q749.072 203.263 739.302 203.263L733.013 203.263L733.013 208.429L800.508 208.429Q819.487 208.429 829.932 207.25Q840.376 206.07 852 201.297Q863.623 196.524 872.439 187.372Q881.255 178.219 886.309 164.349Q891.362 150.479 891.362 133.746Q891.362 110.611 882.097 92.9233Q872.832 75.2354 853.853 64.9033Q834.873 54.5713 800.957 54.5713Q790.063 54.5713 758.73 56.1436ZM260.435 208.429L261.558 163.619L256.279 163.619Q251.226 181.7 245.105 190.011Q238.984 198.321 232.19 200.792Q225.396 203.263 211.357 203.263L199.79 203.263Q186.65 203.263 182.664 200.96Q178.677 198.658 177.778 194.503Q176.88 190.348 176.88 173.839L176.88 94.1025Q176.88 75.123 178.059 70.0693Q179.238 65.0156 182.72 63.1626Q186.201 61.3096 197.432 61.3096L204.17 61.3096L204.17 56.1436L131.06 56.1436L131.06 61.3096L134.429 61.3096Q145.996 61.3096 149.421 63.3311Q152.847 65.3525 153.914 70.6309Q154.98 75.9092 154.98 94.1025L154.98 168.785Q154.98 187.877 153.914 193.099Q152.847 198.321 149.084 200.792Q145.322 203.263 135.552 203.263L131.06 203.263L131.06 208.429L260.435 208.429ZM545.352 91.4072L515.366 141.832L478.979 81.749Q473.252 72.3154 473.252 69.1709Q473.252 61.3096 490.547 61.3096L490.547 56.1436L428.779 56.1436L428.779 61.3096Q438.662 61.5342 442.48 65.1841Q446.299 68.834 457.866 87.7012L495.825 150.03L495.825 168.785Q495.825 187.877 494.814 193.099Q493.804 198.321 490.042 200.792Q486.279 203.263 476.509 203.263L474.038 203.263L474.038 208.429L538.95 208.429L538.95 203.263Q527.607 203.263 523.733 201.073Q519.858 198.883 518.679 193.548Q517.5 188.214 517.5 168.785L517.5 148.57L551.641 91.6318Q561.523 75.2354 567.869 69.0024Q574.214 62.7695 584.546 61.3096L584.546 56.1436L534.795 56.1436L534.795 61.3096Q544.902 61.3096 548.833 65.2402Q552.764 69.1709 552.764 73.8877Q552.764 79.0537 545.352 91.4072ZM715.83 161.036L721.221 161.036L717.964 208.429L591.846 208.429L591.846 203.263L594.99 203.263Q606.333 203.263 609.646 200.23Q612.959 197.198 613.857 192.538Q614.756 187.877 614.756 168.785L614.756 94.1025Q614.756 76.6953 613.801 71.1924Q612.847 65.6895 609.421 63.4995Q605.996 61.3096 594.99 61.3096L594.99 56.1436L703.813 56.1436L707.407 94.1025L702.129 94.1025Q698.535 78.1553 693.313 71.4731Q688.091 64.791 680.903 63.0503Q673.716 61.3096 657.769 61.3096L636.655 61.3096L636.655 125.211L652.827 125.211Q663.945 125.211 668.381 123.302Q672.817 121.393 674.221 117.518Q675.625 113.644 675.625 102.413L680.903 102.413L680.903 154.522L675.625 154.522Q675.625 141.832 673.491 137.508Q671.357 133.185 667.258 131.893Q663.159 130.602 653.389 130.602L636.655 130.602L636.655 166.651Q636.655 193.717 640.137 198.49Q643.618 203.263 658.892 203.263L670.234 203.263Q682.251 203.263 690 200.174Q697.749 197.086 704.768 187.484Q711.787 177.882 715.83 161.036ZM781.472 191.358Q780.63 184.845 780.63 162.271L780.63 60.5234Q789.39 59.9619 797.925 59.9619Q815.669 59.9619 827.012 63.3872Q838.354 66.8125 847.676 76.3022Q856.997 85.792 861.995 100.953Q866.992 116.114 866.992 135.431Q866.992 160.25 858.401 176.253Q849.81 192.257 837.007 197.704Q824.204 203.15 804.326 203.15Q790.737 203.15 786.526 200.511Q782.314 197.872 781.472 191.358Z" />
  </g>
</svg>